<?xml version="1.0" standalone="no"?>
<!DOCTYPE svg PUBLIC "-//W3C//DTD SVG 20010904//EN"
 "http://www.w3.org/TR/2001/REC-SVG-20010904/DTD/svg10.dtd">
<svg version="1.0" xmlns="http://www.w3.org/2000/svg"
 width="800.000000pt" height="800.000000pt" viewBox="0 0 800.000000 800.000000"
 preserveAspectRatio="xMidYMid meet">
<metadata>
Created by potrace 1.14, written by Peter Selinger 2001-2017
</metadata>
<g transform="translate(0.000000,800.000000) scale(0.100000,-0.100000)"
fill="#000000" stroke="none">
<path d="M0 4000 l0 -4000 4000 0 4000 0 0 4000 0 4000 -4000 0 -4000 0 0
-4000z m3500 1564 l0 -964 28 6 c15 4 104 31 197 61 897 287 1506 738 1814
1343 63 124 121 277 151 404 11 43 20 80 22 81 3 3 771 -145 776 -150 1 -1
-15 -72 -37 -157 -212 -833 -790 -1499 -1696 -1956 -202 -102 -442 -204 -603
-257 -30 -9 -50 -21 -45 -25 4 -4 67 -29 138 -55 1134 -416 1897 -1140 2184
-2071 33 -107 75 -283 70 -289 -2 -1 -170 -35 -374 -74 -203 -40 -377 -74
-386 -77 -13 -3 -18 5 -23 33 -11 61 -56 212 -88 293 -253 644 -844 1150
-1712 1465 -116 41 -387 125 -407 125 -5 0 -10 -435 -11 -967 l-3 -968 -390 0
-390 0 -3 1048 c-1 576 -6 1047 -10 1047 -5 0 -57 6 -118 14 -60 8 -165 19
-234 25 -69 6 -147 13 -175 16 -85 8 -493 25 -623 25 -89 0 -124 3 -127 13 -2
6 -6 186 -8 398 l-4 386 201 7 c110 4 219 9 241 11 22 2 87 7 145 10 188 11
618 55 688 70 l22 5 0 1039 c0 571 3 1041 7 1045 4 3 181 6 395 6 l388 -1 0
-965z"/>
</g>
</svg>
